<?xml version="1.0" encoding="UTF-8" standalone="no"?>
<!-- Created with Inkscape (http://www.inkscape.org/) -->

<svg
   xmlns:dc="http://purl.org/dc/elements/1.1/"
   xmlns:cc="http://creativecommons.org/ns#"
   xmlns:rdf="http://www.w3.org/1999/02/22-rdf-syntax-ns#"
   xmlns:svg="http://www.w3.org/2000/svg"
   xmlns="http://www.w3.org/2000/svg"
   xmlns:sodipodi="http://sodipodi.sourceforge.net/DTD/sodipodi-0.dtd"
   xmlns:inkscape="http://www.inkscape.org/namespaces/inkscape"
   version="1.1"
   id="svg64"
   width="71.424408"
   height="71.215408"
   viewBox="0 0 71.424408 71.215408"
   sodipodi:docname="icon-vk.svg"
   inkscape:version="0.92.3 (unknown)">

  <path
     style="stroke-width:1.33333337"
     d="M 21.420739,68.487876 C 4.6891633,60.922916 -3.5931407,42.565304 1.4815483,24.292936 3.5411993,16.876778 10.512904,8.7086936 18.717398,4.0993317 24.94454,0.6008643 27.39087,0 35.407221,0 50.103579,0 60.994536,6.712128 67.738607,19.925927 76.987516,38.047508 68.139232,61.245556 48.914496,69.278163 42.025214,72.156689 28.687172,71.773297 21.420739,68.487876 Z M 52.883923,63.862413 C 60.333265,59.267276 67.244542,49.065536 68.584315,40.687059 71.314371,23.614229 59.104913,6.7528708 41.323648,3.0398614 21.720929,-1.053496 2.7540723,14.839283 2.7540723,35.358221 c 0,9.250509 2.499058,15.561818 9.0303037,22.805809 7.24521,8.035868 13.591184,10.594661 25.099547,10.120514 7.793405,-0.32109 10.616603,-1.101374 16,-4.422131 z M 27.199396,46.878682 c -3.61166,-2.025199 -7.248567,-6.650778 -10.928726,-13.899637 -3.604007,-7.098863 -3.610912,-7.053117 1.064756,-7.053117 3.178663,0 4.478267,1.002753 6.912188,5.333333 1.648626,2.933334 3.505848,5.333334 4.12716,5.333334 2.107067,0 2.822018,-4.375975 1.351472,-8.271895 l -1.464029,-3.878658 4.912595,0.40861 c 4.751401,0.395201 4.926048,0.594546 5.322592,6.075276 0.225499,3.116667 0.963304,5.666667 1.639568,5.666667 0.676264,0 2.45396,-2.4 3.950435,-5.333334 2.387113,-4.679129 3.289968,-5.333333 7.360432,-5.333333 5.525483,0 5.799166,1.561313 1.306235,7.451849 -1.833333,2.403624 -3.333333,4.905671 -3.333333,5.560103 0,0.654432 1.5,2.599055 3.333333,4.321382 4.555721,4.279878 4.201495,5.333333 -1.793349,5.333333 -3.433362,0 -5.923787,-0.880789 -7.539985,-2.666667 -1.327314,-1.466666 -2.920308,-2.666666 -3.539984,-2.666666 -0.619675,0 -1.126683,1.2 -1.126683,2.666666 0,2.12935 -0.87314,2.657147 -4.333333,2.61942 -2.383333,-0.02599 -5.632938,-0.775986 -7.221344,-1.666666 z"
     id="path74"
     inkscape:connector-curvature="0" />
</svg>
