<?xml version="1.0" encoding="UTF-8" standalone="no"?>
<!-- Created with Inkscape (http://www.inkscape.org/) -->

<svg
   xmlns:dc="http://purl.org/dc/elements/1.1/"
   xmlns:cc="http://creativecommons.org/ns#"
   xmlns:rdf="http://www.w3.org/1999/02/22-rdf-syntax-ns#"
   xmlns:svg="http://www.w3.org/2000/svg"
   xmlns="http://www.w3.org/2000/svg"
   xmlns:sodipodi="http://sodipodi.sourceforge.net/DTD/sodipodi-0.dtd"
   xmlns:inkscape="http://www.inkscape.org/namespaces/inkscape"
   version="1.1"
   id="svg149"
   width="70.932716"
   height="71.564766"
   viewBox="0 0 70.932716 71.564766"
   sodipodi:docname="icon-insta.svg"
   inkscape:version="0.92.3 (unknown)">

  <path
     style="stroke-width:1.33333337"
     d="M 21.64554,68.94178 C -0.80552253,58.707371 -7.0939425,30.674369 8.9680235,12.427012 22.67432,-3.1441647 46.433692,-4.2418237 60.712007,10.036492 c 7.740079,7.740079 10.220711,14.065433 10.220711,26.061741 0,12.056958 -2.438881,18.193822 -10.170338,25.59123 -9.866916,9.440605 -27.247525,12.662994 -39.11684,7.252317 z m 26.4542,-2.174033 C 59.78174,61.886695 68.940403,48.644959 68.96585,36.599202 68.99309,23.702855 62.629027,12.906057 51.31798,6.659153 35.00951,-2.3477463 14.484829,4.4491669 5.7724535,21.74192 -2.0625625,37.293242 5.4165175,58.077547 21.551056,65.590542 29.513398,69.298181 40.841388,69.80048 48.09974,66.767747 Z M 21.567047,50.873186 C 19.406325,49.293899 18.90234,46.993188 18.515469,36.94265 18.075569,25.514458 18.22466,24.731234 21.454863,21.501031 c 3.074633,-3.074633 4.419995,-3.402799 13.95026,-3.402799 8.651655,0 11.178917,0.496703 14.060606,2.76344 3.326592,2.616699 3.513146,3.395518 3.513146,14.666668 0,16.15507 -1.071574,17.23656 -17.078494,17.23656 -8.036303,0 -12.562449,-0.597361 -14.333334,-1.891714 z m 27.364916,-3.353965 c 0.759134,-1.418456 1.380245,-7.084433 1.380245,-12.591061 0,-12.595806 -1.656,-14.163261 -14.963342,-14.163261 -12.537516,0 -14.369993,1.943178 -14.369993,15.238095 0,13.245951 0.926799,14.09524 15.381661,14.09524 9.699787,0 11.375123,-0.343694 12.571429,-2.579013 z M 30.535431,42.431567 c -2.697497,-2.29809 -3.359301,-4.159265 -3.047868,-8.571429 0.455716,-6.456236 11.570712,-8.954728 15.415706,-3.465231 2.784445,3.975353 2.614443,6.658682 -0.687835,10.856848 -3.207235,4.077338 -7.741296,4.535329 -11.680003,1.179812 z m 9.781678,-3.005417 c 1.998101,-2.207877 2.154784,-3.250225 0.901903,-6 -2.625858,-5.763131 -10.906805,-3.734363 -10.906805,2.672083 0,5.955094 5.862563,7.90515 10.004902,3.327917 z m 3.953716,-12.061543 c -1.266957,-2.04998 0.468467,-3.372624 2.179781,-1.661309 0.957574,0.957573 0.98058,1.703368 0.06991,2.266193 -0.746559,0.461399 -1.75892,0.1892 -2.249691,-0.604884 z"
     id="path159"
     inkscape:connector-curvature="0" />
</svg>
